<svg width="30" height="30" viewBox="0 0 30 30" fill="none" xmlns="http://www.w3.org/2000/svg">
<g clip-path="url(#clip0_148_44)">
<path d="M20.5753 15.3113C21.7678 13.9828 22.5 12.2334 22.5 10.3125C22.5 6.17719 19.1353 2.8125 15 2.8125C10.8647 2.8125 7.5 6.17719 7.5 10.3125C7.5 14.4478 10.8647 17.8125 15 17.8125C16.4578 17.8125 17.8153 17.3878 18.9684 16.665C23.0466 18.2016 25.8544 21.9338 26.2116 26.25H3.78937C4.03219 23.3447 5.39531 20.6353 7.6125 18.7022C8.00344 18.3619 8.04375 17.7703 7.70344 17.3794C7.36406 16.9894 6.77156 16.9481 6.38063 17.2884C3.51656 19.7841 1.875 23.3916 1.875 27.1875C1.875 27.7059 2.295 28.125 2.8125 28.125H27.1875C27.7059 28.125 28.125 27.7059 28.125 27.1875C28.125 22.0444 25.1438 17.4516 20.5753 15.3113ZM9.375 10.3125C9.375 7.21031 11.8978 4.6875 15 4.6875C18.1022 4.6875 20.625 7.21031 20.625 10.3125C20.625 13.4147 18.1022 15.9375 15 15.9375C11.8978 15.9375 9.375 13.4147 9.375 10.3125Z" fill="#822523"/>
</g>
<defs>
<clipPath id="clip0_148_44">
<rect width="30" height="30" fill="white"/>
</clipPath>
</defs>
</svg>
