<svg width="25" height="26" viewBox="0 0 25 26" fill="none" xmlns="http://www.w3.org/2000/svg">
<path fill-rule="evenodd" clip-rule="evenodd" d="M5.67005 6.27687H3.75598C2.43335 6.27687 1.33549 7.16757 1.24112 8.31749L0.00638723 23.382C-0.0433193 23.9902 0.198719 24.589 0.675614 25.0353C1.15323 25.4816 1.82103 25.7352 2.52125 25.7352H22.4788C23.179 25.7352 23.8468 25.4816 24.3244 25.0353C24.8013 24.589 25.0433 23.9902 24.9936 23.382L23.7589 8.31749C23.6645 7.16757 22.5666 6.27687 21.244 6.27687H19.3436V5.96303C19.3436 2.66955 16.2799 0 12.5 0C8.85846 0 5.49282 2.52707 5.65635 5.96303C5.66139 6.06723 5.66572 6.17205 5.67005 6.27687ZM19.3436 8.15993V12.8676C19.3436 13.3873 18.8596 13.8091 18.2631 13.8091C17.6666 13.8091 17.1825 13.3873 17.1825 12.8676V8.15993H7.8175V12.8676C7.8175 13.3873 7.3334 13.8091 6.73693 13.8091C6.14045 13.8091 5.65635 13.3873 5.65635 12.8676C5.65635 12.8676 5.75 10.6675 5.71903 8.15993H3.75598C3.56724 8.15993 3.4102 8.28735 3.39724 8.45118L2.16176 23.5157C2.15455 23.6029 2.18915 23.6883 2.25759 23.7523C2.32602 23.8157 2.42111 23.8521 2.52125 23.8521H22.4788C22.5789 23.8521 22.674 23.8157 22.7424 23.7523C22.8108 23.6883 22.8454 23.6029 22.8382 23.5157L21.6028 8.45118C21.5898 8.28735 21.4328 8.15993 21.244 8.15993H19.3436ZM17.1825 6.27687V5.96303C17.1825 3.70963 15.0862 1.88306 12.5 1.88306C9.91382 1.88306 7.8175 3.70963 7.8175 5.96303V6.27687H17.1825Z" fill="#DE5B6D"/>
</svg>
