<?xml version="1.0" encoding="UTF-8" ?>
<!DOCTYPE svg PUBLIC "-//W3C//DTD SVG 1.1//EN" "http://www.w3.org/Graphics/SVG/1.1/DTD/svg11.dtd">
<svg viewBox="0 0 1024 1024" version="1.1" xmlns="http://www.w3.org/2000/svg">
<g id="#822523ff">
<path fill="#822523" opacity="1.00" d=" M 53.70 65.71 C 57.96 64.19 62.53 63.92 67.01 63.98 C 90.70 64.08 114.39 63.89 138.08 64.07 C 160.97 64.53 182.88 78.47 193.08 98.95 C 198.33 108.72 199.60 119.87 201.62 130.60 C 206.52 157.54 211.42 184.47 216.32 211.41 C 217.16 215.63 217.59 219.95 218.87 224.07 C 433.25 223.89 647.63 224.07 862.00 223.98 C 875.24 223.16 888.48 231.20 893.47 243.54 C 895.92 249.25 896.55 255.66 895.47 261.76 C 880.49 343.92 865.51 426.07 850.53 508.23 C 847.51 523.84 845.87 540.07 838.46 554.41 C 823.28 586.22 789.29 607.85 754.01 607.97 C 598.85 608.05 443.70 607.95 288.54 608.02 C 294.24 640.04 299.97 672.06 306.05 704.01 C 442.03 703.99 578.02 704.01 714.00 704.00 C 728.63 704.20 743.44 703.09 757.87 706.15 C 789.12 712.18 817.19 732.39 832.98 760.00 C 848.08 785.85 852.00 817.87 843.72 846.63 C 835.44 876.29 814.23 901.99 786.74 915.85 C 760.67 929.25 729.26 931.64 701.42 922.52 C 671.75 913.03 646.61 890.50 633.91 862.05 C 620.42 832.58 620.81 797.27 634.76 768.04 C 563.58 767.98 492.41 767.98 421.24 768.03 C 430.96 788.61 434.25 812.16 430.43 834.60 C 425.13 867.37 404.27 897.09 375.35 913.36 C 345.08 930.85 306.50 932.74 274.63 918.38 C 246.37 905.99 223.80 881.36 213.98 852.10 C 205.62 827.69 206.07 800.38 215.28 776.28 C 221.64 759.28 232.41 744.11 245.85 731.96 C 229.91 643.20 213.59 554.51 197.53 465.76 C 177.00 353.20 156.66 240.60 136.04 128.05 C 111.67 127.90 87.29 128.10 62.92 127.96 C 47.68 127.78 33.89 115.20 32.27 100.05 C 30.10 85.40 39.63 70.23 53.70 65.71 M 230.37 288.00 C 236.49 323.30 243.16 358.50 249.48 393.77 C 258.64 443.83 267.59 493.92 276.88 543.96 C 435.26 544.06 593.65 543.97 752.04 544.00 C 767.13 544.55 781.36 532.83 783.71 517.92 C 797.61 441.28 811.81 364.69 825.51 288.02 C 627.13 287.98 428.75 288.01 230.37 288.00 M 315.32 768.23 C 301.01 769.52 287.58 777.72 279.79 789.78 C 272.23 801.19 270.05 815.90 273.79 829.04 C 277.13 841.07 285.43 851.60 296.30 857.74 C 306.13 863.39 318.01 865.27 329.13 863.13 C 342.00 860.71 353.65 852.69 360.60 841.60 C 367.70 830.51 369.80 816.43 366.41 803.72 C 363.15 791.13 354.47 780.10 343.06 773.89 C 334.67 769.23 324.86 767.30 315.32 768.23 M 731.32 768.23 C 717.00 769.51 703.58 777.72 695.79 789.78 C 687.92 801.64 685.89 817.10 690.27 830.63 C 693.94 842.24 702.26 852.27 712.94 858.10 C 723.10 863.73 735.34 865.38 746.66 862.81 C 759.17 860.02 770.35 851.93 776.99 840.98 C 783.78 829.99 785.73 816.20 782.42 803.74 C 779.16 791.14 770.47 780.11 759.06 773.89 C 750.67 769.23 740.86 767.30 731.32 768.23 Z" />
</g>
</svg>
